<!DOCTYPE svg PUBLIC "-//W3C//DTD SVG 1.1//EN" "http://www.w3.org/Graphics/SVG/1.1/DTD/svg11.dtd">
<!-- Uploaded to: SVG Repo, www.svgrepo.com, Transformed by: SVG Repo Mixer Tools -->
<svg fill="#ffffff" version="1.1" id="Capa_1" xmlns="http://www.w3.org/2000/svg" xmlns:xlink="http://www.w3.org/1999/xlink" width="800px" height="800px" viewBox="0 0 34.334 34.334" xml:space="preserve" stroke="#ffffff">
<g id="SVGRepo_bgCarrier" stroke-width="0"/>
<g id="SVGRepo_tracerCarrier" stroke-linecap="round" stroke-linejoin="round"/>
<g id="SVGRepo_iconCarrier"> <g> <path d="M32.834,22.126H18.668v-11h6l-11-11l-11,11h6v11H1.5c-0.828,0-1.5,0.672-1.5,1.5v9.082c0,0.828,0.672,1.5,1.5,1.5h31.334 c0.828,0,1.5-0.672,1.5-1.5v-9.082C34.334,22.798,33.662,22.126,32.834,22.126z M31.334,31.208H3v-6.082h5.668v2.75h10v-2.75 h12.666V31.208z M30.168,28.167h-2v-2h2V28.167z M24.73,28.167v-2h2v2H24.73z"/> </g> </g>
</svg>