<?xml version="1.0" standalone="no"?>
<!DOCTYPE svg PUBLIC "-//W3C//DTD SVG 20010904//EN"
 "http://www.w3.org/TR/2001/REC-SVG-20010904/DTD/svg10.dtd">
<svg version="1.0" xmlns="http://www.w3.org/2000/svg"
 width="200.000000pt" height="200.000000pt" viewBox="0 0 200.000000 200.000000"
 preserveAspectRatio="xMidYMid meet">

<g transform="translate(0.000000,200.000000) scale(0.100000,-0.100000)"
fill="#000000" stroke="none">
<path d="M1134 1352 c-42 -15 -154 -78 -154 -87 0 -1 20 4 45 13 56 18 97 11
158 -28 53 -34 95 -92 104 -144 10 -64 -20 -120 -126 -229 l-95 -98 72 -72 73
-72 128 130 c150 153 181 205 181 307 0 77 -23 130 -81 193 -88 96 -195 127
-305 87z"/>
<path d="M658 1233 c-147 -151 -178 -204 -178 -305 0 -77 23 -130 81 -193 70
-76 120 -100 209 -100 65 0 84 4 140 32 36 18 76 42 90 52 l25 20 -47 -16
c-59 -19 -100 -12 -161 27 -53 34 -95 92 -104 144 -10 64 20 120 126 229 l95
98 -69 69 c-38 39 -72 70 -76 70 -3 0 -62 -57 -131 -127z"/>
</g>
</svg>
