<!DOCTYPE svg PUBLIC "-//W3C//DTD SVG 1.1//EN" "http://www.w3.org/Graphics/SVG/1.1/DTD/svg11.dtd">
<!-- Uploaded to: SVG Repo, www.svgrepo.com, Transformed by: SVG Repo Mixer Tools -->
<svg fill="#ffffff" width="800px" height="800px" viewBox="0 0 32 32" style="fill-rule:evenodd;clip-rule:evenodd;stroke-linejoin:round;stroke-miterlimit:2;" version="1.1" xml:space="preserve" xmlns="http://www.w3.org/2000/svg" xmlns:serif="http://www.serif.com/" xmlns:xlink="http://www.w3.org/1999/xlink" stroke="#ffffff">
<g id="SVGRepo_bgCarrier" stroke-width="0"/>
<g id="SVGRepo_tracerCarrier" stroke-linecap="round" stroke-linejoin="round"/>
<g id="SVGRepo_iconCarrier"> <g id="Layer1"> <path d="M16,2c-6.071,0 -11,4.929 -11,11c0,2.778 1.654,6.081 3.699,9.019c2.939,4.224 6.613,7.707 6.613,7.707c0.386,0.365 0.99,0.365 1.376,-0c0,-0 3.674,-3.483 6.613,-7.707c2.045,-2.938 3.699,-6.241 3.699,-9.019c0,-6.071 -4.929,-11 -11,-11Zm0,5.5c-3.036,0 -5.5,2.464 -5.5,5.5c0,3.036 2.464,5.5 5.5,5.5c3.036,-0 5.5,-2.464 5.5,-5.5c0,-3.036 -2.464,-5.5 -5.5,-5.5Zm0,2c1.932,0 3.5,1.568 3.5,3.5c0,1.932 -1.568,3.5 -3.5,3.5c-1.932,-0 -3.5,-1.568 -3.5,-3.5c0,-1.932 1.568,-3.5 3.5,-3.5Z"/> </g> </g>
</svg>