<?xml version="1.0" encoding="utf-8"?>
<!-- Generator: Adobe Illustrator 25.4.1, SVG Export Plug-In . SVG Version: 6.00 Build 0)  -->
<svg version="1.0" id="katman_1" xmlns="http://www.w3.org/2000/svg" xmlns:xlink="http://www.w3.org/1999/xlink" x="0px" y="0px"
	 viewBox="0 0 1700 1200" style="enable-background:new 0 0 1700 1200;" xml:space="preserve">
<style type="text/css">
	.st0{fill:#1D1D1B;}
</style>
<g>
	<g transform="translate(36.576271, 2.777778)">
		<path class="st0" d="M864.5,538v42.2h0.4c7-9.2,16.9-13.7,29.9-13.7c5.8,0,11.2,0.9,16.4,2.8c5.1,1.9,9.7,4.7,13.7,8.5
			c4,3.8,7.1,8.5,9.4,14.2c2.3,5.7,3.4,12.3,3.4,19.7c0,8.4-1.5,16.2-4.6,23.4c-3.1,7.2-7.9,13-14.4,17.3
			c-6.5,4.3-14.6,6.5-24.3,6.5c-14,0-23.9-4.5-29.9-13.4h-0.4v11h-26.6V538H864.5z M762.6,564c51.6,0,47.2,55.4,47.2,55.4l0,0h-70.7
			c2.9,11,12.4,18.3,25.4,18.3c15.8,0,24.3-9.5,24.3-9.5l0,0l15,15.3c-7.7,7.7-18.1,14.7-39.5,14.7c-33.1,0-50.7-21.9-50.7-45.1
			S726.8,564,762.6,564z M1405.4,563.9c22.2,0,36.3,8.5,36.3,8.5l0,0l-9.1,19.5c-29.6-15.3-42.9-4.5-42.9,0.9
			c0,5.4,5.3,5.8,25.9,9.6c20.6,3.8,30.2,12.4,30.2,26.3c0,13.9-11.9,29.2-41,29.2c-29.1,0-42.4-9.3-42.4-9.3l0,0l8.8-19.4
			c22.8,14.4,48.7,9.8,48.7,1.2c0-6.5-8.6-7.8-17.9-8.9l-4-0.5c-1.8-0.2-3.5-0.4-5.2-0.7c-11.8-1.9-29.3-8.2-29.3-26.3
			C1363.5,575.9,1383.2,563.9,1405.4,563.9z M1275.3,531.8v71.6l38.6-37.1h31.5l-38.3,36.7l42,54.7h-31.3l-28.7-37.4l-13.9,13.3
			v24.1h-25.8V531.8H1275.3z M1182.8,563.3c18.3,0,34.3,9.1,43.2,22.8l0,0l-21.8,12.8c-4.1-7.8-12.1-13-21.4-13
			c-13.4,0-24.3,11.1-24.3,24.7c0,13.7,10.9,24.7,24.3,24.7c8.8,0,16.5-4.8,20.8-12l0,0l21.9,12.5c-9,13.2-24.7,22-42.7,22
			c-27.9,0-50.5-21.2-50.5-47.3C1132.3,584.5,1154.9,563.3,1182.8,563.3z M1062.9,563.3c27.9,0,50.5,21.2,50.5,47.3
			c0,26.1-22.6,47.3-50.5,47.3c-27.9,0-50.5-21.2-50.5-47.3C1012.3,584.5,1035,563.3,1062.9,563.3z M604.2,566v91h-28v-91H604.2z
			 M551,538.4v22.8h-62.7v30.2h55.4v22.5h-55.4V657h-28V538.4H551z M664,577.3c0,0,9.9-15.5,30.4-13.1l0,0v25.4
			c0,0-22.3-5.7-30.4,17.3l0,0V657h-26.7v-91h25.5l1.2,10.7V577.3z M985.6,531.4v125h-28.2v-125H985.6z M886.6,586.4
			c-15.5,0-23.2,9.4-23.2,28.3c0,7.1,2,13.1,6,18c4,4.8,10,7.3,18,7.3c5.4,0,9.7-1.4,13.1-4.2c3.3-2.8,5.7-6.2,7.1-10.3
			c1.4-4,2.1-8.1,2.1-12.1c0-7.7-1.8-14.2-5.5-19.3S894.6,586.4,886.6,586.4z M1062.9,585.9c-13.4,0-24.3,11.1-24.3,24.7
			c0,13.7,10.9,24.7,24.3,24.7c13.4,0,24.3-11.1,24.3-24.7C1087.1,596.9,1076.3,585.9,1062.9,585.9z M763,583.8
			c-13.7,0-21.2,8.4-23.8,19.4l0,0H785C784.8,600.3,780.2,583.8,763,583.8z M590.2,523.1c9.1,0,16.5,6.8,16.5,15.1
			c0,8.3-7.4,15.1-16.5,15.1c-9.1,0-16.5-6.8-16.5-15.1C573.7,529.8,581.1,523.1,590.2,523.1z"/>
	</g>
	<g>
		<path class="st0" d="M403.2,504.6c4.2,0,7.6,3.4,7.6,7.6l0,0V688c0,4.2-3.4,7.6-7.6,7.6l0,0H225c-4.2,0-7.6-3.4-7.6-7.6l0,0V512.3
			c0-4.2,3.4-7.6,7.6-7.6l0,0H403.2z M314.1,557.7l-53.8,84.9h107.5L314.1,557.7z"/>
	</g>
</g>
</svg>
