<!DOCTYPE svg PUBLIC "-//W3C//DTD SVG 1.1//EN" "http://www.w3.org/Graphics/SVG/1.1/DTD/svg11.dtd">
<!-- Uploaded to: SVG Repo, www.svgrepo.com, Transformed by: SVG Repo Mixer Tools -->
<svg width="800px" height="800px" viewBox="0 0 24 24" fill="none" xmlns="http://www.w3.org/2000/svg" stroke="#ffffff">
<g id="SVGRepo_bgCarrier" stroke-width="0"/>
<g id="SVGRepo_tracerCarrier" stroke-linecap="round" stroke-linejoin="round"/>
<g id="SVGRepo_iconCarrier"> <path d="M9 5H3M3 5L5 7M3 5L5 3M21 5H15M21 5L19 7M21 5L19 3M12 9L16.4714 12.2519C16.8514 12.5283 17.0415 12.6665 17.1909 12.8387C17.3235 12.9913 17.4321 13.1632 17.5131 13.3484C17.6045 13.5573 17.6478 13.7882 17.7344 14.2501L18.6447 19.1051C18.7667 19.7556 18.8276 20.0808 18.7373 20.3349C18.6581 20.5578 18.5024 20.7454 18.2979 20.8644C18.0648 21 17.7339 21 17.0721 21H16M12 9L7.52864 12.2519C7.14857 12.5283 6.95853 12.6665 6.80906 12.8387C6.67652 12.9913 6.56789 13.1632 6.48688 13.3484C6.39551 13.5573 6.35221 13.7882 6.2656 14.2501L5.35529 19.1051C5.23333 19.7556 5.17235 20.0808 5.26267 20.3349C5.3419 20.5578 5.49761 20.7454 5.70212 20.8644C5.93524 21 6.26612 21 6.92788 21H12M12 9V15M12 21H16M12 21V15M16 21L12 15" stroke="#ffffff" stroke-width="2" stroke-linecap="round" stroke-linejoin="round"/> </g>
</svg>